<?xml version="1.0" encoding="UTF-8" standalone="no"?>
<!-- Created with Inkscape (http://www.inkscape.org/) -->

<svg
   width="23.81258mm"
   height="23.812557mm"
   viewBox="0 0 23.81258 23.812557"
   version="1.1"
   id="svg1"
   xmlns="http://www.w3.org/2000/svg"
   xmlns:svg="http://www.w3.org/2000/svg">
  <defs
     id="defs1" />
  <g
     id="layer1"
     transform="translate(-159.01459,-114.82916)">
    <path
       d="m 171.79469,118.37002 v 0.88346 a 7.5465963,7.5465963 0 0 1 6.60895,6.60808 h 0.88259 c -0.40983,-3.94108 -3.54959,-7.08258 -7.49154,-7.49154 z"
       id="path2"
       style="fill:#4a545e;fill-opacity:1;stroke-width:0.873853" />
    <path
       d="m 170.92084,114.82916 c -6.56526,0 -11.90625,5.341 -11.90625,11.90625 0,0.29537 0.0227,0.58374 0.0446,0.87386 h 1.74771 c 0.44567,5.19243 4.80794,9.28469 10.11398,9.28469 5.6014,0 10.15854,-4.55715 10.15854,-10.15855 a 10.075528,10.075528 0 0 0 -1.93034,-5.93783 l -0.62481,0.62481 a 9.2296376,9.2296376 0 0 1 1.6813,5.31302 h -1.74771 a 7.5221284,7.5221284 0 0 1 -2.764,5.82773 l 0.61957,0.61956 0.3408,0.34081 0.27614,0.27613 c -1.621,1.38157 -3.71737,2.22047 -6.00949,2.22047 -2.29212,0 -4.38762,-0.8389 -6.00949,-2.22047 l 0.61781,-0.61694 a 8.3723876,8.3723876 0 0 0 10.07466,0.52606 l -0.63005,-0.63004 a 7.4845527,7.4845527 0 0 1 -4.05381,1.1928 7.5081468,7.5081468 0 0 1 -5.41264,-2.30522 l -0.61782,0.61781 -0.61694,0.61782 a 9.2497362,9.2497362 0 0 1 -2.63729,-6.46739 c 0,-1.97578 0.6283,-3.80388 1.68479,-5.30953 l -0.62742,-0.62655 a 10.075528,10.075528 0 0 0 -1.93035,5.93695 h -0.87385 c 0,-2.77361 1.03727,-5.30428 2.73254,-7.24511 l 0.31022,0.31022 0.30759,0.30759 0.62131,0.62044 a 9.2698349,9.2698349 0 0 1 6.18688,-3.23413 v 0.87472 c -4.22857,0.43868 -7.53698,4.02322 -7.53698,8.3654 0,1.95831 0.67811,3.75844 1.80538,5.18894 l 0.62306,-0.62306 a 7.4871743,7.4871743 0 0 1 -1.55459,-4.56588 c 0,-4.15605 3.38094,-7.53698 7.53699,-7.53698 v -1.74684 c 2.82779,0 5.36021,1.27408 7.06423,3.27521 l 0.61781,-0.61782 0.52606,-0.52606 0.0918,-0.0917 a 10.979966,10.979966 0 0 1 2.73253,7.24511 c 0,6.08377 -4.94863,11.0324 -11.03239,11.0324 -5.48693,0 -10.03533,-4.03021 -10.87685,-9.28469 h -0.88609 c 0.85026,5.73685 5.79277,10.15854 11.76294,10.15854 6.56526,0 11.90625,-5.34099 11.90625,-11.90625 0,-6.56525 -5.34099,-11.90625 -11.90625,-11.90625 z m 8.36452,12.78011 h 0.8756 a 9.2462408,9.2462408 0 0 1 -2.59185,5.59353 l -0.61781,-0.61781 a 8.375883,8.375883 0 0 0 2.33406,-4.97572 z m -1.28019,-8.13994 a 10.11922,10.11922 0 0 0 -14.16866,0 l -0.61781,-0.61695 a 10.989578,10.989578 0 0 1 15.40428,0 z"
       id="path3"
       style="fill:#4a545e;fill-opacity:1;stroke-width:0.873853" />
  </g>
</svg>
